<svg width="180" height="88" viewBox="0 0 180 88" fill="none" xmlns="http://www.w3.org/2000/svg">
<path d="M13.7101 86.9018H0V2.97334H13.7101V86.9018ZM37.739 34.2913H24.0288V86.9018H37.739V34.2913ZM38.0544 20.2241C38.0612 18.7873 37.6413 17.3808 36.848 16.1829C36.0547 14.9849 34.9236 14.0494 33.5981 13.4949C32.2727 12.9403 30.8124 12.7917 29.4024 13.0679C27.9923 13.344 26.696 14.0325 25.6776 15.0461C24.6592 16.0597 23.9646 17.3527 23.6818 18.7614C23.399 20.1701 23.5407 21.6311 24.089 22.9592C24.6373 24.2873 25.5674 25.4227 26.7616 26.2217C27.9558 27.0207 29.3603 27.4472 30.7971 27.4472C32.7167 27.4511 34.5593 26.6928 35.9201 25.3388C37.2809 23.9849 38.0486 22.1437 38.0544 20.2241ZM132.16 0C97.2278 0 84.0141 27.4961 79.0406 37.849C78.6444 38.6755 78.307 39.387 78.0234 39.9274L77.9084 40.1719L67.7316 62.9953L59.3519 34.2644H45.0403L59.8067 83.1436C60.2103 84.4711 61.0077 85.6447 62.0932 86.5089C63.1788 87.373 64.5013 87.887 65.8855 87.9826C66.0468 87.9948 66.2131 87.9997 66.3745 87.9997C67.6802 88 68.959 87.628 70.0608 86.9272C71.1626 86.2265 72.0417 85.2261 72.5951 84.0434L90.3006 46.011C90.6405 45.341 91.0024 44.5928 91.4156 43.737C94.4405 36.7926 98.6447 30.4242 103.842 24.914C107.539 21.196 111.96 18.2772 116.832 16.3386C121.704 14.3999 126.921 13.4828 132.162 13.6441C139.87 13.6422 147.429 15.7607 154.014 19.7677C160.598 23.7746 165.953 29.5156 169.493 36.3623L179.951 27.0217C174.993 18.7777 167.987 11.9568 159.613 7.2222C151.239 2.48758 141.782 0.000388117 132.162 0.00244384M164.409 55.738V86.9018H150.699V82.1508C145.87 85.538 140.205 87.5363 134.32 87.9286C128.434 88.3208 122.554 87.092 117.318 84.3757C112.083 81.6594 107.692 77.5596 104.624 72.5221C101.555 67.4847 99.9267 61.7024 99.9151 55.804V55.7233C99.9151 47.1708 103.313 38.9687 109.36 32.9212C115.408 26.8737 123.61 23.4762 132.162 23.4762C140.715 23.4762 148.917 26.8737 154.964 32.9212C161.012 38.9687 164.409 47.1708 164.409 55.7233V55.738ZM113.701 55.7526C113.693 59.407 114.77 62.9815 116.794 66.0238C118.819 69.0661 121.701 71.4393 125.075 72.8431C128.449 74.247 132.163 74.6183 135.748 73.9101C139.334 73.2019 142.628 71.4461 145.215 68.8648C147.802 66.2835 149.564 62.9928 150.28 59.4092C150.996 55.8256 150.633 52.1102 149.236 48.7332C147.839 45.3563 145.472 42.4696 142.434 40.4385C139.396 38.4074 135.824 37.3233 132.17 37.3233C129.747 37.3207 127.347 37.7954 125.108 38.7201C122.869 39.6449 120.833 41.0017 119.118 42.713C117.403 44.4243 116.042 46.4567 115.113 48.694C114.183 50.9314 113.704 53.3299 113.701 55.7526Z" fill="#FF6B00"/>
</svg>
